# Blender 4.1.1
# www.blender.org
mtllib estrellita.mtl
o Circle
v 0.000000 1.999989 -0.004621
v -0.313864 1.431993 -0.001996
v -0.951057 1.309014 -0.001428
v -0.507843 0.834993 0.000763
v -0.587785 0.190992 0.003739
v 0.000000 0.466028 0.002468
v 0.587785 0.190992 0.003739
v 0.507843 0.834993 0.000763
v 0.951057 1.309014 -0.001428
v 0.313864 1.431993 -0.001996
v 0.004558 1.000927 0.200533
v 0.000000 1.008167 -0.205133
vn -0.0725 0.3798 0.9222
vn -0.2781 -0.2558 0.9259
vn -0.3771 0.0511 0.9248
vn 0.1629 -0.3438 0.9248
vn -0.1618 -0.3415 0.9259
vn 0.3832 0.0518 0.9222
vn 0.2814 -0.2589 0.9240
vn 0.0727 0.3809 0.9218
vn 0.3376 0.1908 0.9217
vn -0.3329 0.1882 0.9240
vn -0.3444 0.1860 -0.9202
vn 0.3444 0.1860 -0.9202
vn 0.0752 0.3852 -0.9198
vn 0.2821 -0.2680 -0.9212
vn 0.3882 0.0439 -0.9205
vn -0.1631 -0.3528 -0.9214
vn 0.1631 -0.3528 -0.9214
vn -0.3882 0.0439 -0.9205
vn -0.2821 -0.2680 -0.9212
vn -0.0752 0.3852 -0.9198
vt 0.000000 0.000000
s 0
usemtl Estrella_1
f 2/1/1 3/1/1 11/1/1
f 3/1/2 4/1/2 11/1/2
f 4/1/3 5/1/3 11/1/3
f 5/1/4 6/1/4 11/1/4
f 6/1/5 7/1/5 11/1/5
f 7/1/6 8/1/6 11/1/6
f 8/1/7 9/1/7 11/1/7
f 9/1/8 10/1/8 11/1/8
f 10/1/9 1/1/9 11/1/9
f 1/1/10 2/1/10 11/1/10
f 2/1/11 1/1/11 12/1/11
f 1/1/12 10/1/12 12/1/12
f 10/1/13 9/1/13 12/1/13
f 9/1/14 8/1/14 12/1/14
f 8/1/15 7/1/15 12/1/15
f 7/1/16 6/1/16 12/1/16
f 6/1/17 5/1/17 12/1/17
f 5/1/18 4/1/18 12/1/18
f 4/1/19 3/1/19 12/1/19
f 3/1/20 2/1/20 12/1/20
